solid Light Switch Servo Mount
facet normal -0.0 1.0 -0.0
outer loop
vertex 0.0 11.90625 20.6375
vertex 3.175 11.90625 0.0
vertex 0.0 11.90625 0.0
endloop
endfacet
facet normal -0.0 1.0 -0.0
outer loop
vertex 3.175 11.90625 0.0
vertex 0.0 11.90625 20.6375
vertex 3.175 11.90625 3.175
endloop
endfacet
facet normal -0.0 1.0 -0.0
outer loop
vertex 3.175 11.90625 3.175
vertex 0.0 11.90625 20.6375
vertex 3.175 11.90625 20.6375
endloop
endfacet
facet normal 1.0 0.0 0.0
outer loop
vertex 38.1 11.90625 0.0
vertex 38.1 0.79375 20.6375
vertex 38.1 0.79375 0.0
endloop
endfacet
facet normal 1.0 0.0 0.0
outer loop
vertex 38.1 0.79375 20.6375
vertex 38.1 11.90625 0.0
vertex 38.1 11.90625 20.6375
endloop
endfacet
facet normal 0.0 -1.0 0.0
outer loop
vertex 38.1 0.79375 20.6375
vertex 34.925 0.79375 0.0
vertex 38.1 0.79375 0.0
endloop
endfacet
facet normal 0.0 -1.0 0.0
outer loop
vertex 34.925 0.79375 0.0
vertex 38.1 0.79375 20.6375
vertex 34.925 0.79375 3.175
endloop
endfacet
facet normal 0.0 -1.0 0.0
outer loop
vertex 34.925 0.79375 3.175
vertex 38.1 0.79375 20.6375
vertex 34.925 0.79375 20.6375
endloop
endfacet
facet normal -1.0 0.0 0.0
outer loop
vertex 0.0 11.90625 20.6375
vertex 0.0 0.79375 0.0
vertex 0.0 0.79375 20.6375
endloop
endfacet
facet normal -1.0 0.0 0.0
outer loop
vertex 0.0 0.79375 0.0
vertex 0.0 11.90625 20.6375
vertex 0.0 11.90625 0.0
endloop
endfacet
facet normal -0.0 -0.0 1.0
outer loop
vertex 3.175 2.38125 3.175
vertex 9.42870197729953 4.66620197729953 3.175
vertex 3.175 10.31875 3.175
endloop
endfacet
facet normal -0.0 -0.0 1.0
outer loop
vertex 9.42870197729953 4.66620197729953 3.175
vertex 3.175 2.38125 3.175
vertex 9.921875 4.28777700723831 3.175
endloop
endfacet
facet normal -0.0 -0.0 1.0
outer loop
vertex 9.921875 4.28777700723831 3.175
vertex 3.175 2.38125 3.175
vertex 10.4961871488496 4.04988912614916 3.175
endloop
endfacet
facet normal -0.0 -0.0 1.0
outer loop
vertex 10.4961871488496 4.04988912614916 3.175
vertex 3.175 2.38125 3.175
vertex 11.1125 3.96875 3.175
endloop
endfacet
facet normal -0.0 -0.0 1.0
outer loop
vertex 11.1125 3.96875 3.175
vertex 3.175 2.38125 3.175
vertex 34.925 2.38125 3.175
endloop
endfacet
facet normal -0.0 -0.0 1.0
outer loop
vertex 3.175 10.31875 3.175
vertex 9.42870197729953 4.66620197729953 3.175
vertex 9.05027700723831 5.159375 3.175
endloop
endfacet
facet normal -0.0 -0.0 1.0
outer loop
vertex 3.175 10.31875 3.175
vertex 9.05027700723831 5.159375 3.175
vertex 8.81238912614915 5.73368714884962 3.175
endloop
endfacet
facet normal -0.0 -0.0 1.0
outer loop
vertex 3.175 10.31875 3.175
vertex 8.81238912614915 5.73368714884962 3.175
vertex 8.73125 6.35 3.175
endloop
endfacet
facet normal -0.0 -0.0 1.0
outer loop
vertex 11.1125 3.96875 3.175
vertex 34.925 2.38125 3.175
vertex 11.7288128511504 4.04988912614916 3.175
endloop
endfacet
facet normal -0.0 -0.0 1.0
outer loop
vertex 11.7288128511504 4.04988912614916 3.175
vertex 34.925 2.38125 3.175
vertex 12.303125 4.28777700723831 3.175
endloop
endfacet
facet normal -0.0 -0.0 1.0
outer loop
vertex 12.303125 4.28777700723831 3.175
vertex 34.925 2.38125 3.175
vertex 12.7962980227005 4.66620197729953 3.175
endloop
endfacet
facet normal -0.0 -0.0 1.0
outer loop
vertex 12.7962980227005 4.66620197729953 3.175
vertex 34.925 2.38125 3.175
vertex 20.6375 3.96875 3.175
endloop
endfacet
facet normal -0.0 -0.0 1.0
outer loop
vertex 12.7962980227005 4.66620197729953 3.175
vertex 20.6375 3.96875 3.175
vertex 20.0211871488496 4.04988912614916 3.175
endloop
endfacet
facet normal -0.0 -0.0 1.0
outer loop
vertex 12.7962980227005 4.66620197729953 3.175
vertex 20.0211871488496 4.04988912614916 3.175
vertex 13.1747229927617 5.159375 3.175
endloop
endfacet
facet normal -0.0 -0.0 1.0
outer loop
vertex 13.1747229927617 5.159375 3.175
vertex 20.0211871488496 4.04988912614916 3.175
vertex 13.4126108738508 5.73368714884962 3.175
endloop
endfacet
facet normal -0.0 -0.0 1.0
outer loop
vertex 13.4126108738508 5.73368714884962 3.175
vertex 20.0211871488496 4.04988912614916 3.175
vertex 13.49375 6.35 3.175
endloop
endfacet
facet normal -0.0 -0.0 1.0
outer loop
vertex 13.49375 6.35 3.175
vertex 20.0211871488496 4.04988912614916 3.175
vertex 19.446875 4.28777700723831 3.175
endloop
endfacet
facet normal -0.0 -0.0 1.0
outer loop
vertex 13.49375 6.35 3.175
vertex 19.446875 4.28777700723831 3.175
vertex 18.9537019772995 4.66620197729953 3.175
endloop
endfacet
facet normal -0.0 -0.0 1.0
outer loop
vertex 13.49375 6.35 3.175
vertex 18.9537019772995 4.66620197729953 3.175
vertex 18.5752770072383 5.159375 3.175
endloop
endfacet
facet normal -0.0 -0.0 1.0
outer loop
vertex 13.49375 6.35 3.175
vertex 18.5752770072383 5.159375 3.175
vertex 18.3373891261492 5.73368714884962 3.175
endloop
endfacet
facet normal -0.0 -0.0 1.0
outer loop
vertex 13.49375 6.35 3.175
vertex 18.3373891261492 5.73368714884962 3.175
vertex 18.25625 6.35 3.175
endloop
endfacet
facet normal -0.0 -0.0 1.0
outer loop
vertex 20.6375 3.96875 3.175
vertex 34.925 2.38125 3.175
vertex 21.2538128511504 4.04988912614916 3.175
endloop
endfacet
facet normal -0.0 -0.0 1.0
outer loop
vertex 21.2538128511504 4.04988912614916 3.175
vertex 34.925 2.38125 3.175
vertex 21.828125 4.28777700723831 3.175
endloop
endfacet
facet normal -0.0 -0.0 1.0
outer loop
vertex 21.828125 4.28777700723831 3.175
vertex 34.925 2.38125 3.175
vertex 22.3212980227005 4.66620197729953 3.175
endloop
endfacet
facet normal -0.0 -0.0 1.0
outer loop
vertex 22.3212980227005 4.66620197729953 3.175
vertex 34.925 2.38125 3.175
vertex 22.6997229927617 5.159375 3.175
endloop
endfacet
facet normal -0.0 -0.0 1.0
outer loop
vertex 22.6997229927617 5.159375 3.175
vertex 34.925 2.38125 3.175
vertex 22.9376108738508 5.73368714884962 3.175
endloop
endfacet
facet normal -0.0 -0.0 1.0
outer loop
vertex 22.9376108738508 5.73368714884962 3.175
vertex 34.925 2.38125 3.175
vertex 23.01875 6.35 3.175
endloop
endfacet
facet normal -0.0 -0.0 1.0
outer loop
vertex 3.175 10.31875 3.175
vertex 11.1125 8.73125 3.175
vertex 34.925 10.31875 3.175
endloop
endfacet
facet normal -0.0 -0.0 1.0
outer loop
vertex 11.1125 8.73125 3.175
vertex 3.175 10.31875 3.175
vertex 10.4961871488496 8.65011087385084 3.175
endloop
endfacet
facet normal -0.0 -0.0 1.0
outer loop
vertex 10.4961871488496 8.65011087385084 3.175
vertex 3.175 10.31875 3.175
vertex 9.921875 8.41222299276169 3.175
endloop
endfacet
facet normal -0.0 -0.0 1.0
outer loop
vertex 9.921875 8.41222299276169 3.175
vertex 3.175 10.31875 3.175
vertex 9.42870197729953 8.03379802270047 3.175
endloop
endfacet
facet normal -0.0 -0.0 1.0
outer loop
vertex 9.42870197729953 8.03379802270047 3.175
vertex 3.175 10.31875 3.175
vertex 9.05027700723831 7.540625 3.175
endloop
endfacet
facet normal -0.0 -0.0 1.0
outer loop
vertex 9.05027700723831 7.540625 3.175
vertex 3.175 10.31875 3.175
vertex 8.81238912614915 6.96631285115038 3.175
endloop
endfacet
facet normal -0.0 -0.0 1.0
outer loop
vertex 8.81238912614915 6.96631285115038 3.175
vertex 3.175 10.31875 3.175
vertex 8.73125 6.35 3.175
endloop
endfacet
facet normal -0.0 -0.0 1.0
outer loop
vertex 34.925 10.31875 3.175
vertex 11.1125 8.73125 3.175
vertex 11.7288128511504 8.65011087385084 3.175
endloop
endfacet
facet normal -0.0 -0.0 1.0
outer loop
vertex 34.925 10.31875 3.175
vertex 11.7288128511504 8.65011087385084 3.175
vertex 12.303125 8.41222299276169 3.175
endloop
endfacet
facet normal -0.0 -0.0 1.0
outer loop
vertex 34.925 10.31875 3.175
vertex 12.303125 8.41222299276169 3.175
vertex 12.7962980227005 8.03379802270046 3.175
endloop
endfacet
facet normal -0.0 -0.0 1.0
outer loop
vertex 34.925 10.31875 3.175
vertex 12.7962980227005 8.03379802270046 3.175
vertex 20.6375 8.73125 3.175
endloop
endfacet
facet normal -0.0 -0.0 1.0
outer loop
vertex 20.6375 8.73125 3.175
vertex 12.7962980227005 8.03379802270046 3.175
vertex 20.0211871488496 8.65011087385084 3.175
endloop
endfacet
facet normal -0.0 -0.0 1.0
outer loop
vertex 20.0211871488496 8.65011087385084 3.175
vertex 12.7962980227005 8.03379802270046 3.175
vertex 13.1747229927617 7.540625 3.175
endloop
endfacet
facet normal -0.0 -0.0 1.0
outer loop
vertex 20.0211871488496 8.65011087385084 3.175
vertex 13.1747229927617 7.540625 3.175
vertex 13.4126108738508 6.96631285115038 3.175
endloop
endfacet
facet normal -0.0 -0.0 1.0
outer loop
vertex 20.0211871488496 8.65011087385084 3.175
vertex 13.4126108738508 6.96631285115038 3.175
vertex 13.49375 6.35 3.175
endloop
endfacet
facet normal -0.0 -0.0 1.0
outer loop
vertex 20.0211871488496 8.65011087385084 3.175
vertex 13.49375 6.35 3.175
vertex 19.446875 8.41222299276169 3.175
endloop
endfacet
facet normal -0.0 -0.0 1.0
outer loop
vertex 19.446875 8.41222299276169 3.175
vertex 13.49375 6.35 3.175
vertex 18.9537019772995 8.03379802270047 3.175
endloop
endfacet
facet normal -0.0 -0.0 1.0
outer loop
vertex 18.9537019772995 8.03379802270047 3.175
vertex 13.49375 6.35 3.175
vertex 18.5752770072383 7.540625 3.175
endloop
endfacet
facet normal -0.0 -0.0 1.0
outer loop
vertex 18.5752770072383 7.540625 3.175
vertex 13.49375 6.35 3.175
vertex 18.3373891261492 6.96631285115038 3.175
endloop
endfacet
facet normal -0.0 -0.0 1.0
outer loop
vertex 18.3373891261492 6.96631285115038 3.175
vertex 13.49375 6.35 3.175
vertex 18.25625 6.35 3.175
endloop
endfacet
facet normal -0.0 -0.0 1.0
outer loop
vertex 34.925 10.31875 3.175
vertex 20.6375 8.73125 3.175
vertex 21.2538128511504 8.65011087385084 3.175
endloop
endfacet
facet normal -0.0 -0.0 1.0
outer loop
vertex 34.925 10.31875 3.175
vertex 21.2538128511504 8.65011087385084 3.175
vertex 21.828125 8.41222299276169 3.175
endloop
endfacet
facet normal -0.0 -0.0 1.0
outer loop
vertex 34.925 10.31875 3.175
vertex 21.828125 8.41222299276169 3.175
vertex 22.3212980227005 8.03379802270046 3.175
endloop
endfacet
facet normal -0.0 -0.0 1.0
outer loop
vertex 34.925 10.31875 3.175
vertex 22.3212980227005 8.03379802270046 3.175
vertex 22.6997229927617 7.540625 3.175
endloop
endfacet
facet normal -0.0 -0.0 1.0
outer loop
vertex 34.925 10.31875 3.175
vertex 22.6997229927617 7.540625 3.175
vertex 22.9376108738508 6.96631285115038 3.175
endloop
endfacet
facet normal -0.0 -0.0 1.0
outer loop
vertex 34.925 10.31875 3.175
vertex 22.9376108738508 6.96631285115038 3.175
vertex 23.01875 6.35 3.175
endloop
endfacet
facet normal -0.0 -0.0 1.0
outer loop
vertex 34.925 10.31875 3.175
vertex 23.01875 6.35 3.175
vertex 34.925 2.38125 3.175
endloop
endfacet
facet normal 0.0 0.0 1.0
outer loop
vertex 3.175 0.79375 20.6375
vertex 0.0 11.90625 20.6375
vertex 0.0 0.79375 20.6375
endloop
endfacet
facet normal 0.0 0.0 1.0
outer loop
vertex 0.0 11.90625 20.6375
vertex 3.175 0.79375 20.6375
vertex 3.175 11.90625 20.6375
endloop
endfacet
facet normal 1.0 -2.77555756156289e-017 0.0
outer loop
vertex 3.175 2.38125 3.175
vertex 3.175 0.79375 20.6375
vertex 3.175 0.79375 3.175
endloop
endfacet
facet normal 1.0 -2.77555756156289e-017 0.0
outer loop
vertex 3.175 0.79375 20.6375
vertex 3.175 2.38125 3.175
vertex 3.175 11.90625 20.6375
endloop
endfacet
facet normal 1.0 -2.77555756156289e-017 0.0
outer loop
vertex 3.175 11.90625 20.6375
vertex 3.175 2.38125 3.175
vertex 3.175 10.31875 3.175
endloop
endfacet
facet normal 1.0 -2.77555756156289e-017 0.0
outer loop
vertex 3.175 11.90625 20.6375
vertex 3.175 10.31875 3.175
vertex 3.175 11.90625 3.175
endloop
endfacet
facet normal 0.0 0.0 1.0
outer loop
vertex 38.1 0.79375 20.6375
vertex 34.925 11.90625 20.6375
vertex 34.925 0.79375 20.6375
endloop
endfacet
facet normal 0.0 0.0 1.0
outer loop
vertex 34.925 11.90625 20.6375
vertex 38.1 0.79375 20.6375
vertex 38.1 11.90625 20.6375
endloop
endfacet
facet normal -1.0 -0.0 -0.0
outer loop
vertex 34.925 11.90625 20.6375
vertex 34.925 0.79375 3.175
vertex 34.925 0.79375 20.6375
endloop
endfacet
facet normal -1.0 -0.0 -0.0
outer loop
vertex 34.925 0.79375 3.175
vertex 34.925 11.90625 20.6375
vertex 34.925 2.38125 3.175
endloop
endfacet
facet normal -1.0 -0.0 -0.0
outer loop
vertex 34.925 2.38125 3.175
vertex 34.925 11.90625 20.6375
vertex 34.925 10.31875 3.175
endloop
endfacet
facet normal -1.0 -0.0 -0.0
outer loop
vertex 34.925 10.31875 3.175
vertex 34.925 11.90625 20.6375
vertex 34.925 11.90625 3.175
endloop
endfacet
facet normal 0.0 -1.0 0.0
outer loop
vertex 3.175 0.79375 3.175
vertex 0.0 0.79375 0.0
vertex 3.175 0.79375 0.0
endloop
endfacet
facet normal 0.0 -1.0 0.0
outer loop
vertex 0.0 0.79375 0.0
vertex 3.175 0.79375 3.175
vertex 0.0 0.79375 20.6375
endloop
endfacet
facet normal 0.0 -1.0 0.0
outer loop
vertex 0.0 0.79375 20.6375
vertex 3.175 0.79375 3.175
vertex 3.175 0.79375 20.6375
endloop
endfacet
facet normal -0.0 1.0 -0.0
outer loop
vertex 34.925 11.90625 3.175
vertex 38.1 11.90625 0.0
vertex 34.925 11.90625 0.0
endloop
endfacet
facet normal -0.0 1.0 -0.0
outer loop
vertex 38.1 11.90625 0.0
vertex 34.925 11.90625 3.175
vertex 38.1 11.90625 20.6375
endloop
endfacet
facet normal -0.0 1.0 -0.0
outer loop
vertex 38.1 11.90625 20.6375
vertex 34.925 11.90625 3.175
vertex 34.925 11.90625 20.6375
endloop
endfacet
facet normal 0.0 1.0 0.0
outer loop
vertex 3.175 10.31875 3.175
vertex 34.925 10.31875 0.0
vertex 3.175 10.31875 0.0
endloop
endfacet
facet normal 0.0 1.0 0.0
outer loop
vertex 34.925 10.31875 0.0
vertex 3.175 10.31875 3.175
vertex 34.925 10.31875 3.175
endloop
endfacet
facet normal 1.0 -0.0 -0.0
outer loop
vertex 3.175 11.90625 0.0
vertex 3.175 10.31875 3.175
vertex 3.175 10.31875 0.0
endloop
endfacet
facet normal 1.0 -0.0 -0.0
outer loop
vertex 3.175 10.31875 3.175
vertex 3.175 11.90625 0.0
vertex 3.175 11.90625 3.175
endloop
endfacet
facet normal -1.0 -0.0 -0.0
outer loop
vertex 34.925 11.90625 3.175
vertex 34.925 10.31875 0.0
vertex 34.925 10.31875 3.175
endloop
endfacet
facet normal -1.0 -0.0 -0.0
outer loop
vertex 34.925 10.31875 0.0
vertex 34.925 11.90625 3.175
vertex 34.925 11.90625 0.0
endloop
endfacet
facet normal 0.0 -1.0 0.0
outer loop
vertex 34.925 2.38125 3.175
vertex 3.175 2.38125 0.0
vertex 34.925 2.38125 0.0
endloop
endfacet
facet normal 0.0 -1.0 0.0
outer loop
vertex 3.175 2.38125 0.0
vertex 34.925 2.38125 3.175
vertex 3.175 2.38125 3.175
endloop
endfacet
facet normal 1.0 0.0 0.0
outer loop
vertex 3.175 2.38125 0.0
vertex 3.175 0.79375 3.175
vertex 3.175 0.79375 0.0
endloop
endfacet
facet normal 1.0 0.0 0.0
outer loop
vertex 3.175 0.79375 3.175
vertex 3.175 2.38125 0.0
vertex 3.175 2.38125 3.175
endloop
endfacet
facet normal -1.0 -0.0 0.0
outer loop
vertex 34.925 2.38125 3.175
vertex 34.925 0.79375 0.0
vertex 34.925 0.79375 3.175
endloop
endfacet
facet normal -1.0 -0.0 0.0
outer loop
vertex 34.925 0.79375 0.0
vertex 34.925 2.38125 3.175
vertex 34.925 2.38125 0.0
endloop
endfacet
facet normal 0.0 0.0 -1.0
outer loop
vertex 3.175 10.31875 0.0
vertex 8.81238912614915 6.96631285115038 0.0
vertex 8.73125 6.35 0.0
endloop
endfacet
facet normal 0.0 0.0 -1.0
outer loop
vertex 8.81238912614915 6.96631285115038 0.0
vertex 3.175 10.31875 0.0
vertex 9.05027700723831 7.540625 0.0
endloop
endfacet
facet normal 0.0 0.0 -1.0
outer loop
vertex 9.05027700723831 7.540625 0.0
vertex 3.175 10.31875 0.0
vertex 9.42870197729953 8.03379802270047 0.0
endloop
endfacet
facet normal 0.0 0.0 -1.0
outer loop
vertex 9.42870197729953 8.03379802270047 0.0
vertex 3.175 10.31875 0.0
vertex 9.921875 8.41222299276169 0.0
endloop
endfacet
facet normal 0.0 0.0 -1.0
outer loop
vertex 9.921875 8.41222299276169 0.0
vertex 3.175 10.31875 0.0
vertex 10.4961871488496 8.65011087385084 0.0
endloop
endfacet
facet normal 0.0 0.0 -1.0
outer loop
vertex 10.4961871488496 8.65011087385084 0.0
vertex 3.175 10.31875 0.0
vertex 11.1125 8.73125 0.0
endloop
endfacet
facet normal 0.0 0.0 -1.0
outer loop
vertex 11.1125 8.73125 0.0
vertex 3.175 10.31875 0.0
vertex 34.925 10.31875 0.0
endloop
endfacet
facet normal 0.0 0.0 -1.0
outer loop
vertex 11.1125 8.73125 0.0
vertex 34.925 10.31875 0.0
vertex 11.7288128511504 8.65011087385084 0.0
endloop
endfacet
facet normal 0.0 0.0 -1.0
outer loop
vertex 11.7288128511504 8.65011087385084 0.0
vertex 34.925 10.31875 0.0
vertex 12.303125 8.41222299276169 0.0
endloop
endfacet
facet normal 0.0 0.0 -1.0
outer loop
vertex 12.303125 8.41222299276169 0.0
vertex 34.925 10.31875 0.0
vertex 12.7962980227005 8.03379802270046 0.0
endloop
endfacet
facet normal 0.0 0.0 -1.0
outer loop
vertex 12.7962980227005 8.03379802270046 0.0
vertex 34.925 10.31875 0.0
vertex 20.6375 8.73125 0.0
endloop
endfacet
facet normal 0.0 0.0 -1.0
outer loop
vertex 12.7962980227005 8.03379802270046 0.0
vertex 20.6375 8.73125 0.0
vertex 20.0211871488496 8.65011087385084 0.0
endloop
endfacet
facet normal 0.0 0.0 -1.0
outer loop
vertex 12.7962980227005 8.03379802270046 0.0
vertex 20.0211871488496 8.65011087385084 0.0
vertex 13.1747229927617 7.540625 0.0
endloop
endfacet
facet normal 0.0 0.0 -1.0
outer loop
vertex 13.1747229927617 7.540625 0.0
vertex 20.0211871488496 8.65011087385084 0.0
vertex 13.4126108738508 6.96631285115038 0.0
endloop
endfacet
facet normal 0.0 0.0 -1.0
outer loop
vertex 13.4126108738508 6.96631285115038 0.0
vertex 20.0211871488496 8.65011087385084 0.0
vertex 13.49375 6.35 0.0
endloop
endfacet
facet normal 0.0 0.0 -1.0
outer loop
vertex 13.49375 6.35 0.0
vertex 20.0211871488496 8.65011087385084 0.0
vertex 19.446875 8.41222299276169 0.0
endloop
endfacet
facet normal 0.0 0.0 -1.0
outer loop
vertex 13.49375 6.35 0.0
vertex 19.446875 8.41222299276169 0.0
vertex 18.9537019772995 8.03379802270047 0.0
endloop
endfacet
facet normal 0.0 0.0 -1.0
outer loop
vertex 13.49375 6.35 0.0
vertex 18.9537019772995 8.03379802270047 0.0
vertex 18.5752770072383 7.540625 0.0
endloop
endfacet
facet normal 0.0 0.0 -1.0
outer loop
vertex 13.49375 6.35 0.0
vertex 18.5752770072383 7.540625 0.0
vertex 18.3373891261492 6.96631285115038 0.0
endloop
endfacet
facet normal 0.0 0.0 -1.0
outer loop
vertex 13.49375 6.35 0.0
vertex 18.3373891261492 6.96631285115038 0.0
vertex 18.25625 6.35 0.0
endloop
endfacet
facet normal 0.0 0.0 -1.0
outer loop
vertex 20.6375 8.73125 0.0
vertex 34.925 10.31875 0.0
vertex 21.2538128511504 8.65011087385084 0.0
endloop
endfacet
facet normal 0.0 0.0 -1.0
outer loop
vertex 21.2538128511504 8.65011087385084 0.0
vertex 34.925 10.31875 0.0
vertex 21.828125 8.41222299276169 0.0
endloop
endfacet
facet normal 0.0 0.0 -1.0
outer loop
vertex 21.828125 8.41222299276169 0.0
vertex 34.925 10.31875 0.0
vertex 22.3212980227005 8.03379802270046 0.0
endloop
endfacet
facet normal 0.0 0.0 -1.0
outer loop
vertex 22.3212980227005 8.03379802270046 0.0
vertex 34.925 10.31875 0.0
vertex 22.6997229927617 7.540625 0.0
endloop
endfacet
facet normal 0.0 0.0 -1.0
outer loop
vertex 22.6997229927617 7.540625 0.0
vertex 34.925 10.31875 0.0
vertex 22.9376108738508 6.96631285115038 0.0
endloop
endfacet
facet normal 0.0 0.0 -1.0
outer loop
vertex 22.9376108738508 6.96631285115038 0.0
vertex 34.925 10.31875 0.0
vertex 23.01875 6.35 0.0
endloop
endfacet
facet normal 0.0 0.0 -1.0
outer loop
vertex 38.1 11.90625 0.0
vertex 34.925 10.31875 0.0
vertex 34.925 11.90625 0.0
endloop
endfacet
facet normal 0.0 0.0 -1.0
outer loop
vertex 34.925 10.31875 0.0
vertex 38.1 11.90625 0.0
vertex 34.925 2.38125 0.0
endloop
endfacet
facet normal 0.0 0.0 -1.0
outer loop
vertex 34.925 2.38125 0.0
vertex 38.1 11.90625 0.0
vertex 34.925 0.79375 0.0
endloop
endfacet
facet normal 0.0 0.0 -1.0
outer loop
vertex 34.925 0.79375 0.0
vertex 38.1 11.90625 0.0
vertex 38.1 0.79375 0.0
endloop
endfacet
facet normal 0.0 0.0 -1.0
outer loop
vertex 3.175 11.90625 0.0
vertex 0.0 0.79375 0.0
vertex 0.0 11.90625 0.0
endloop
endfacet
facet normal 0.0 0.0 -1.0
outer loop
vertex 0.0 0.79375 0.0
vertex 3.175 11.90625 0.0
vertex 3.175 2.38125 0.0
endloop
endfacet
facet normal 0.0 0.0 -1.0
outer loop
vertex 3.175 2.38125 0.0
vertex 3.175 11.90625 0.0
vertex 3.175 10.31875 0.0
endloop
endfacet
facet normal 0.0 0.0 -1.0
outer loop
vertex 3.175 2.38125 0.0
vertex 3.175 10.31875 0.0
vertex 9.42870197729953 4.66620197729953 0.0
endloop
endfacet
facet normal 0.0 0.0 -1.0
outer loop
vertex 3.175 2.38125 0.0
vertex 9.42870197729953 4.66620197729953 0.0
vertex 9.921875 4.28777700723831 0.0
endloop
endfacet
facet normal 0.0 0.0 -1.0
outer loop
vertex 3.175 2.38125 0.0
vertex 9.921875 4.28777700723831 0.0
vertex 10.4961871488496 4.04988912614916 0.0
endloop
endfacet
facet normal 0.0 0.0 -1.0
outer loop
vertex 3.175 2.38125 0.0
vertex 10.4961871488496 4.04988912614916 0.0
vertex 11.1125 3.96875 0.0
endloop
endfacet
facet normal 0.0 0.0 -1.0
outer loop
vertex 3.175 2.38125 0.0
vertex 11.1125 3.96875 0.0
vertex 34.925 2.38125 0.0
endloop
endfacet
facet normal 0.0 0.0 -1.0
outer loop
vertex 9.42870197729953 4.66620197729953 0.0
vertex 3.175 10.31875 0.0
vertex 9.05027700723831 5.159375 0.0
endloop
endfacet
facet normal 0.0 0.0 -1.0
outer loop
vertex 9.05027700723831 5.159375 0.0
vertex 3.175 10.31875 0.0
vertex 8.81238912614915 5.73368714884962 0.0
endloop
endfacet
facet normal 0.0 0.0 -1.0
outer loop
vertex 8.81238912614915 5.73368714884962 0.0
vertex 3.175 10.31875 0.0
vertex 8.73125 6.35 0.0
endloop
endfacet
facet normal 0.0 0.0 -1.0
outer loop
vertex 34.925 2.38125 0.0
vertex 11.1125 3.96875 0.0
vertex 11.7288128511504 4.04988912614916 0.0
endloop
endfacet
facet normal 0.0 0.0 -1.0
outer loop
vertex 34.925 2.38125 0.0
vertex 11.7288128511504 4.04988912614916 0.0
vertex 12.303125 4.28777700723831 0.0
endloop
endfacet
facet normal 0.0 0.0 -1.0
outer loop
vertex 34.925 2.38125 0.0
vertex 12.303125 4.28777700723831 0.0
vertex 12.7962980227005 4.66620197729953 0.0
endloop
endfacet
facet normal 0.0 0.0 -1.0
outer loop
vertex 34.925 2.38125 0.0
vertex 12.7962980227005 4.66620197729953 0.0
vertex 20.6375 3.96875 0.0
endloop
endfacet
facet normal 0.0 0.0 -1.0
outer loop
vertex 20.6375 3.96875 0.0
vertex 12.7962980227005 4.66620197729953 0.0
vertex 20.0211871488496 4.04988912614916 0.0
endloop
endfacet
facet normal 0.0 0.0 -1.0
outer loop
vertex 20.0211871488496 4.04988912614916 0.0
vertex 12.7962980227005 4.66620197729953 0.0
vertex 13.1747229927617 5.159375 0.0
endloop
endfacet
facet normal 0.0 0.0 -1.0
outer loop
vertex 20.0211871488496 4.04988912614916 0.0
vertex 13.1747229927617 5.159375 0.0
vertex 13.4126108738508 5.73368714884962 0.0
endloop
endfacet
facet normal 0.0 0.0 -1.0
outer loop
vertex 20.0211871488496 4.04988912614916 0.0
vertex 13.4126108738508 5.73368714884962 0.0
vertex 13.49375 6.35 0.0
endloop
endfacet
facet normal 0.0 0.0 -1.0
outer loop
vertex 20.0211871488496 4.04988912614916 0.0
vertex 13.49375 6.35 0.0
vertex 19.446875 4.28777700723831 0.0
endloop
endfacet
facet normal 0.0 0.0 -1.0
outer loop
vertex 19.446875 4.28777700723831 0.0
vertex 13.49375 6.35 0.0
vertex 18.9537019772995 4.66620197729953 0.0
endloop
endfacet
facet normal 0.0 0.0 -1.0
outer loop
vertex 18.9537019772995 4.66620197729953 0.0
vertex 13.49375 6.35 0.0
vertex 18.5752770072383 5.159375 0.0
endloop
endfacet
facet normal 0.0 0.0 -1.0
outer loop
vertex 18.5752770072383 5.159375 0.0
vertex 13.49375 6.35 0.0
vertex 18.3373891261492 5.73368714884962 0.0
endloop
endfacet
facet normal 0.0 0.0 -1.0
outer loop
vertex 18.3373891261492 5.73368714884962 0.0
vertex 13.49375 6.35 0.0
vertex 18.25625 6.35 0.0
endloop
endfacet
facet normal 0.0 0.0 -1.0
outer loop
vertex 34.925 2.38125 0.0
vertex 20.6375 3.96875 0.0
vertex 21.2538128511504 4.04988912614916 0.0
endloop
endfacet
facet normal 0.0 0.0 -1.0
outer loop
vertex 34.925 2.38125 0.0
vertex 21.2538128511504 4.04988912614916 0.0
vertex 21.828125 4.28777700723831 0.0
endloop
endfacet
facet normal 0.0 0.0 -1.0
outer loop
vertex 34.925 2.38125 0.0
vertex 21.828125 4.28777700723831 0.0
vertex 22.3212980227005 4.66620197729953 0.0
endloop
endfacet
facet normal 0.0 0.0 -1.0
outer loop
vertex 34.925 2.38125 0.0
vertex 22.3212980227005 4.66620197729953 0.0
vertex 22.6997229927617 5.159375 0.0
endloop
endfacet
facet normal 0.0 0.0 -1.0
outer loop
vertex 34.925 2.38125 0.0
vertex 22.6997229927617 5.159375 0.0
vertex 22.9376108738508 5.73368714884962 0.0
endloop
endfacet
facet normal 0.0 0.0 -1.0
outer loop
vertex 34.925 2.38125 0.0
vertex 22.9376108738508 5.73368714884962 0.0
vertex 23.01875 6.35 0.0
endloop
endfacet
facet normal 0.0 0.0 -1.0
outer loop
vertex 34.925 2.38125 0.0
vertex 23.01875 6.35 0.0
vertex 34.925 10.31875 0.0
endloop
endfacet
facet normal 0.0 0.0 -1.0
outer loop
vertex 3.175 0.79375 0.0
vertex 0.0 0.79375 0.0
vertex 3.175 2.38125 0.0
endloop
endfacet
facet normal 1.0 2.76244406765054e-016 0.0
outer loop
vertex 18.25625 6.35 0.0
vertex 18.3373891261492 5.73368714884962 3.175
vertex 18.3373891261492 5.73368714884962 0.0
endloop
endfacet
facet normal 0.965925826289068 0.258819045102521 0.0
outer loop
vertex 18.3373891261492 5.73368714884962 3.175
vertex 18.25625 6.35 0.0
vertex 18.25625 6.35 3.175
endloop
endfacet
facet normal 0.965925826289068 -0.258819045102521 0.0
outer loop
vertex 18.3373891261492 6.96631285115038 0.0
vertex 18.25625 6.35 3.175
vertex 18.25625 6.35 0.0
endloop
endfacet
facet normal 1.0 2.76244406765054e-016 0.0
outer loop
vertex 18.25625 6.35 3.175
vertex 18.3373891261492 6.96631285115038 0.0
vertex 18.3373891261492 6.96631285115038 3.175
endloop
endfacet
facet normal 0.866025403784438 -0.500000000000001 0.0
outer loop
vertex 18.5752770072383 7.540625 0.0
vertex 18.3373891261492 6.96631285115038 3.175
vertex 18.3373891261492 6.96631285115038 0.0
endloop
endfacet
facet normal 0.965925826289068 -0.258819045102521 0.0
outer loop
vertex 18.3373891261492 6.96631285115038 3.175
vertex 18.5752770072383 7.540625 0.0
vertex 18.5752770072383 7.540625 3.175
endloop
endfacet
facet normal 0.707106781186547 -0.707106781186548 0.0
outer loop
vertex 18.9537019772995 8.03379802270047 0.0
vertex 18.5752770072383 7.540625 3.175
vertex 18.5752770072383 7.540625 0.0
endloop
endfacet
facet normal 0.866025403784438 -0.500000000000001 0.0
outer loop
vertex 18.5752770072383 7.540625 3.175
vertex 18.9537019772995 8.03379802270047 0.0
vertex 18.9537019772995 8.03379802270047 3.175
endloop
endfacet
facet normal 0.499999999999999 -0.866025403784439 0.0
outer loop
vertex 19.446875 8.41222299276169 3.175
vertex 18.9537019772995 8.03379802270047 0.0
vertex 19.446875 8.41222299276169 0.0
endloop
endfacet
facet normal 0.707106781186547 -0.707106781186548 0.0
outer loop
vertex 18.9537019772995 8.03379802270047 0.0
vertex 19.446875 8.41222299276169 3.175
vertex 18.9537019772995 8.03379802270047 3.175
endloop
endfacet
facet normal 0.25881904510252 -0.965925826289068 0.0
outer loop
vertex 20.0211871488496 8.65011087385084 3.175
vertex 19.446875 8.41222299276169 0.0
vertex 20.0211871488496 8.65011087385084 0.0
endloop
endfacet
facet normal 0.499999999999999 -0.866025403784439 0.0
outer loop
vertex 19.446875 8.41222299276169 0.0
vertex 20.0211871488496 8.65011087385084 3.175
vertex 19.446875 8.41222299276169 3.175
endloop
endfacet
facet normal 2.94066626556348e-016 -1.0 0.0
outer loop
vertex 20.6375 8.73125 3.175
vertex 20.0211871488496 8.65011087385084 0.0
vertex 20.6375 8.73125 0.0
endloop
endfacet
facet normal 0.25881904510252 -0.965925826289068 0.0
outer loop
vertex 20.0211871488496 8.65011087385084 0.0
vertex 20.6375 8.73125 3.175
vertex 20.0211871488496 8.65011087385084 3.175
endloop
endfacet
facet normal -0.258819045102521 -0.965925826289068 0.0
outer loop
vertex 21.2538128511504 8.65011087385084 3.175
vertex 20.6375 8.73125 0.0
vertex 21.2538128511504 8.65011087385084 0.0
endloop
endfacet
facet normal 2.94066626556348e-016 -1.0 0.0
outer loop
vertex 20.6375 8.73125 0.0
vertex 21.2538128511504 8.65011087385084 3.175
vertex 20.6375 8.73125 3.175
endloop
endfacet
facet normal -0.500000000000001 -0.866025403784438 0.0
outer loop
vertex 21.828125 8.41222299276169 3.175
vertex 21.2538128511504 8.65011087385084 0.0
vertex 21.828125 8.41222299276169 0.0
endloop
endfacet
facet normal -0.258819045102521 -0.965925826289068 0.0
outer loop
vertex 21.2538128511504 8.65011087385084 0.0
vertex 21.828125 8.41222299276169 3.175
vertex 21.2538128511504 8.65011087385084 3.175
endloop
endfacet
facet normal -0.707106781186548 -0.707106781186548 0.0
outer loop
vertex 22.3212980227005 8.03379802270046 3.175
vertex 21.828125 8.41222299276169 0.0
vertex 22.3212980227005 8.03379802270046 0.0
endloop
endfacet
facet normal -0.500000000000001 -0.866025403784438 0.0
outer loop
vertex 21.828125 8.41222299276169 0.0
vertex 22.3212980227005 8.03379802270046 3.175
vertex 21.828125 8.41222299276169 3.175
endloop
endfacet
facet normal -0.707106781186548 -0.707106781186548 0.0
outer loop
vertex 22.3212980227005 8.03379802270046 3.175
vertex 22.6997229927617 7.540625 0.0
vertex 22.6997229927617 7.540625 3.175
endloop
endfacet
facet normal -0.866025403784438 -0.5 0.0
outer loop
vertex 22.6997229927617 7.540625 0.0
vertex 22.3212980227005 8.03379802270046 3.175
vertex 22.3212980227005 8.03379802270046 0.0
endloop
endfacet
facet normal -0.866025403784438 -0.5 0.0
outer loop
vertex 22.6997229927617 7.540625 3.175
vertex 22.9376108738508 6.96631285115038 0.0
vertex 22.9376108738508 6.96631285115038 3.175
endloop
endfacet
facet normal -0.965925826289068 -0.258819045102521 0.0
outer loop
vertex 22.9376108738508 6.96631285115038 0.0
vertex 22.6997229927617 7.540625 3.175
vertex 22.6997229927617 7.540625 0.0
endloop
endfacet
facet normal -0.965925826289068 -0.258819045102521 0.0
outer loop
vertex 22.9376108738508 6.96631285115038 3.175
vertex 23.01875 6.35 0.0
vertex 23.01875 6.35 3.175
endloop
endfacet
facet normal -1.0 -1.33666648434704e-016 0.0
outer loop
vertex 23.01875 6.35 0.0
vertex 22.9376108738508 6.96631285115038 3.175
vertex 22.9376108738508 6.96631285115038 0.0
endloop
endfacet
facet normal -1.0 -1.33666648434704e-016 0.0
outer loop
vertex 23.01875 6.35 3.175
vertex 22.9376108738508 5.73368714884962 0.0
vertex 22.9376108738508 5.73368714884962 3.175
endloop
endfacet
facet normal -0.965925826289068 0.258819045102521 0.0
outer loop
vertex 22.9376108738508 5.73368714884962 0.0
vertex 23.01875 6.35 3.175
vertex 23.01875 6.35 0.0
endloop
endfacet
facet normal -0.965925826289068 0.258819045102521 0.0
outer loop
vertex 22.9376108738508 5.73368714884962 3.175
vertex 22.6997229927617 5.159375 0.0
vertex 22.6997229927617 5.159375 3.175
endloop
endfacet
facet normal -0.866025403784438 0.5 0.0
outer loop
vertex 22.6997229927617 5.159375 0.0
vertex 22.9376108738508 5.73368714884962 3.175
vertex 22.9376108738508 5.73368714884962 0.0
endloop
endfacet
facet normal -0.866025403784438 0.5 0.0
outer loop
vertex 22.6997229927617 5.159375 3.175
vertex 22.3212980227005 4.66620197729953 0.0
vertex 22.3212980227005 4.66620197729953 3.175
endloop
endfacet
facet normal -0.707106781186547 0.707106781186548 0.0
outer loop
vertex 22.3212980227005 4.66620197729953 0.0
vertex 22.6997229927617 5.159375 3.175
vertex 22.6997229927617 5.159375 0.0
endloop
endfacet
facet normal -0.5 0.866025403784439 0.0
outer loop
vertex 21.828125 4.28777700723831 3.175
vertex 22.3212980227005 4.66620197729953 0.0
vertex 21.828125 4.28777700723831 0.0
endloop
endfacet
facet normal -0.707106781186547 0.707106781186548 0.0
outer loop
vertex 22.3212980227005 4.66620197729953 0.0
vertex 21.828125 4.28777700723831 3.175
vertex 22.3212980227005 4.66620197729953 3.175
endloop
endfacet
facet normal -0.258819045102521 0.965925826289068 0.0
outer loop
vertex 21.2538128511504 4.04988912614916 3.175
vertex 21.828125 4.28777700723831 0.0
vertex 21.2538128511504 4.04988912614916 0.0
endloop
endfacet
facet normal -0.5 0.866025403784439 0.0
outer loop
vertex 21.828125 4.28777700723831 0.0
vertex 21.2538128511504 4.04988912614916 3.175
vertex 21.828125 4.28777700723831 3.175
endloop
endfacet
facet normal 5.61399923425755e-016 1.0 0.0
outer loop
vertex 20.6375 3.96875 3.175
vertex 21.2538128511504 4.04988912614916 0.0
vertex 20.6375 3.96875 0.0
endloop
endfacet
facet normal -0.258819045102521 0.965925826289068 0.0
outer loop
vertex 21.2538128511504 4.04988912614916 0.0
vertex 20.6375 3.96875 3.175
vertex 21.2538128511504 4.04988912614916 3.175
endloop
endfacet
facet normal 0.258819045102521 0.965925826289068 0.0
outer loop
vertex 20.0211871488496 4.04988912614916 3.175
vertex 20.6375 3.96875 0.0
vertex 20.0211871488496 4.04988912614916 0.0
endloop
endfacet
facet normal 5.61399923425755e-016 1.0 0.0
outer loop
vertex 20.6375 3.96875 0.0
vertex 20.0211871488496 4.04988912614916 3.175
vertex 20.6375 3.96875 3.175
endloop
endfacet
facet normal 0.5 0.866025403784439 0.0
outer loop
vertex 19.446875 4.28777700723831 3.175
vertex 20.0211871488496 4.04988912614916 0.0
vertex 19.446875 4.28777700723831 0.0
endloop
endfacet
facet normal 0.258819045102521 0.965925826289068 0.0
outer loop
vertex 20.0211871488496 4.04988912614916 0.0
vertex 19.446875 4.28777700723831 3.175
vertex 20.0211871488496 4.04988912614916 3.175
endloop
endfacet
facet normal 0.707106781186548 0.707106781186547 0.0
outer loop
vertex 18.9537019772995 4.66620197729953 3.175
vertex 19.446875 4.28777700723831 0.0
vertex 18.9537019772995 4.66620197729953 0.0
endloop
endfacet
facet normal 0.5 0.866025403784439 0.0
outer loop
vertex 19.446875 4.28777700723831 0.0
vertex 18.9537019772995 4.66620197729953 3.175
vertex 19.446875 4.28777700723831 3.175
endloop
endfacet
facet normal 0.866025403784439 0.5 0.0
outer loop
vertex 18.5752770072383 5.159375 0.0
vertex 18.9537019772995 4.66620197729953 3.175
vertex 18.9537019772995 4.66620197729953 0.0
endloop
endfacet
facet normal 0.707106781186548 0.707106781186547 0.0
outer loop
vertex 18.9537019772995 4.66620197729953 3.175
vertex 18.5752770072383 5.159375 0.0
vertex 18.5752770072383 5.159375 3.175
endloop
endfacet
facet normal 0.965925826289068 0.258819045102521 0.0
outer loop
vertex 18.3373891261492 5.73368714884962 0.0
vertex 18.5752770072383 5.159375 3.175
vertex 18.5752770072383 5.159375 0.0
endloop
endfacet
facet normal 0.866025403784439 0.5 0.0
outer loop
vertex 18.5752770072383 5.159375 3.175
vertex 18.3373891261492 5.73368714884962 0.0
vertex 18.3373891261492 5.73368714884962 3.175
endloop
endfacet
facet normal -0.965925826289068 -0.258819045102521 0.0
outer loop
vertex 13.4126108738508 6.96631285115038 3.175
vertex 13.49375 6.35 0.0
vertex 13.49375 6.35 3.175
endloop
endfacet
facet normal -1.0 -1.24755538539057e-016 0.0
outer loop
vertex 13.49375 6.35 0.0
vertex 13.4126108738508 6.96631285115038 3.175
vertex 13.4126108738508 6.96631285115038 0.0
endloop
endfacet
facet normal -1.0 -1.24755538539057e-016 0.0
outer loop
vertex 13.49375 6.35 3.175
vertex 13.4126108738508 5.73368714884962 0.0
vertex 13.4126108738508 5.73368714884962 3.175
endloop
endfacet
facet normal -0.965925826289068 0.258819045102521 0.0
outer loop
vertex 13.4126108738508 5.73368714884962 0.0
vertex 13.49375 6.35 3.175
vertex 13.49375 6.35 0.0
endloop
endfacet
facet normal -0.965925826289068 0.258819045102521 0.0
outer loop
vertex 13.4126108738508 5.73368714884962 3.175
vertex 13.1747229927617 5.159375 0.0
vertex 13.1747229927617 5.159375 3.175
endloop
endfacet
facet normal -0.866025403784438 0.5 0.0
outer loop
vertex 13.1747229927617 5.159375 0.0
vertex 13.4126108738508 5.73368714884962 3.175
vertex 13.4126108738508 5.73368714884962 0.0
endloop
endfacet
facet normal -0.866025403784438 0.5 0.0
outer loop
vertex 13.1747229927617 5.159375 3.175
vertex 12.7962980227005 4.66620197729953 0.0
vertex 12.7962980227005 4.66620197729953 3.175
endloop
endfacet
facet normal -0.707106781186547 0.707106781186548 0.0
outer loop
vertex 12.7962980227005 4.66620197729953 0.0
vertex 13.1747229927617 5.159375 3.175
vertex 13.1747229927617 5.159375 0.0
endloop
endfacet
facet normal -0.5 0.866025403784439 0.0
outer loop
vertex 12.303125 4.28777700723831 3.175
vertex 12.7962980227005 4.66620197729953 0.0
vertex 12.303125 4.28777700723831 0.0
endloop
endfacet
facet normal -0.707106781186547 0.707106781186548 0.0
outer loop
vertex 12.7962980227005 4.66620197729953 0.0
vertex 12.303125 4.28777700723831 3.175
vertex 12.7962980227005 4.66620197729953 3.175
endloop
endfacet
facet normal -0.258819045102521 0.965925826289068 0.0
outer loop
vertex 11.7288128511504 4.04988912614916 3.175
vertex 12.303125 4.28777700723831 0.0
vertex 11.7288128511504 4.04988912614916 0.0
endloop
endfacet
facet normal -0.5 0.866025403784439 0.0
outer loop
vertex 12.303125 4.28777700723831 0.0
vertex 11.7288128511504 4.04988912614916 3.175
vertex 12.303125 4.28777700723831 3.175
endloop
endfacet
facet normal 4.00999945304111e-016 1.0 0.0
outer loop
vertex 11.1125 3.96875 3.175
vertex 11.7288128511504 4.04988912614916 0.0
vertex 11.1125 3.96875 0.0
endloop
endfacet
facet normal -0.258819045102521 0.965925826289068 0.0
outer loop
vertex 11.7288128511504 4.04988912614916 0.0
vertex 11.1125 3.96875 3.175
vertex 11.7288128511504 4.04988912614916 3.175
endloop
endfacet
facet normal 0.258819045102521 0.965925826289068 0.0
outer loop
vertex 10.4961871488496 4.04988912614916 3.175
vertex 11.1125 3.96875 0.0
vertex 10.4961871488496 4.04988912614916 0.0
endloop
endfacet
facet normal 4.00999945304111e-016 1.0 0.0
outer loop
vertex 11.1125 3.96875 0.0
vertex 10.4961871488496 4.04988912614916 3.175
vertex 11.1125 3.96875 3.175
endloop
endfacet
facet normal 0.500000000000001 0.866025403784438 0.0
outer loop
vertex 9.921875 4.28777700723831 3.175
vertex 10.4961871488496 4.04988912614916 0.0
vertex 9.921875 4.28777700723831 0.0
endloop
endfacet
facet normal 0.258819045102521 0.965925826289068 0.0
outer loop
vertex 10.4961871488496 4.04988912614916 0.0
vertex 9.921875 4.28777700723831 3.175
vertex 10.4961871488496 4.04988912614916 3.175
endloop
endfacet
facet normal 0.707106781186548 0.707106781186547 0.0
outer loop
vertex 9.42870197729953 4.66620197729953 3.175
vertex 9.921875 4.28777700723831 0.0
vertex 9.42870197729953 4.66620197729953 0.0
endloop
endfacet
facet normal 0.500000000000001 0.866025403784438 0.0
outer loop
vertex 9.921875 4.28777700723831 0.0
vertex 9.42870197729953 4.66620197729953 3.175
vertex 9.921875 4.28777700723831 3.175
endloop
endfacet
facet normal 0.866025403784439 0.5 0.0
outer loop
vertex 9.05027700723831 5.159375 0.0
vertex 9.42870197729953 4.66620197729953 3.175
vertex 9.42870197729953 4.66620197729953 0.0
endloop
endfacet
facet normal 0.707106781186548 0.707106781186547 0.0
outer loop
vertex 9.42870197729953 4.66620197729953 3.175
vertex 9.05027700723831 5.159375 0.0
vertex 9.05027700723831 5.159375 3.175
endloop
endfacet
facet normal 0.965925826289068 0.258819045102521 0.0
outer loop
vertex 8.81238912614915 5.73368714884962 0.0
vertex 9.05027700723831 5.159375 3.175
vertex 9.05027700723831 5.159375 0.0
endloop
endfacet
facet normal 0.866025403784439 0.5 0.0
outer loop
vertex 9.05027700723831 5.159375 3.175
vertex 8.81238912614915 5.73368714884962 0.0
vertex 8.81238912614915 5.73368714884962 3.175
endloop
endfacet
facet normal 1.0 2.67333296869407e-016 0.0
outer loop
vertex 8.73125 6.35 0.0
vertex 8.81238912614915 5.73368714884962 3.175
vertex 8.81238912614915 5.73368714884962 0.0
endloop
endfacet
facet normal 0.965925826289068 0.258819045102521 0.0
outer loop
vertex 8.81238912614915 5.73368714884962 3.175
vertex 8.73125 6.35 0.0
vertex 8.73125 6.35 3.175
endloop
endfacet
facet normal 0.965925826289068 -0.258819045102521 0.0
outer loop
vertex 8.81238912614915 6.96631285115038 0.0
vertex 8.73125 6.35 3.175
vertex 8.73125 6.35 0.0
endloop
endfacet
facet normal 1.0 2.67333296869407e-016 0.0
outer loop
vertex 8.73125 6.35 3.175
vertex 8.81238912614915 6.96631285115038 0.0
vertex 8.81238912614915 6.96631285115038 3.175
endloop
endfacet
facet normal 0.866025403784438 -0.500000000000001 0.0
outer loop
vertex 9.05027700723831 7.540625 0.0
vertex 8.81238912614915 6.96631285115038 3.175
vertex 8.81238912614915 6.96631285115038 0.0
endloop
endfacet
facet normal 0.965925826289068 -0.258819045102521 0.0
outer loop
vertex 8.81238912614915 6.96631285115038 3.175
vertex 9.05027700723831 7.540625 0.0
vertex 9.05027700723831 7.540625 3.175
endloop
endfacet
facet normal 0.707106781186547 -0.707106781186548 0.0
outer loop
vertex 9.42870197729953 8.03379802270047 0.0
vertex 9.05027700723831 7.540625 3.175
vertex 9.05027700723831 7.540625 0.0
endloop
endfacet
facet normal 0.866025403784438 -0.500000000000001 0.0
outer loop
vertex 9.05027700723831 7.540625 3.175
vertex 9.42870197729953 8.03379802270047 0.0
vertex 9.42870197729953 8.03379802270047 3.175
endloop
endfacet
facet normal 0.5 -0.866025403784439 0.0
outer loop
vertex 9.921875 8.41222299276169 3.175
vertex 9.42870197729953 8.03379802270047 0.0
vertex 9.921875 8.41222299276169 0.0
endloop
endfacet
facet normal 0.707106781186547 -0.707106781186548 0.0
outer loop
vertex 9.42870197729953 8.03379802270047 0.0
vertex 9.921875 8.41222299276169 3.175
vertex 9.42870197729953 8.03379802270047 3.175
endloop
endfacet
facet normal 0.258819045102521 -0.965925826289068 0.0
outer loop
vertex 10.4961871488496 8.65011087385084 3.175
vertex 9.921875 8.41222299276169 0.0
vertex 10.4961871488496 8.65011087385084 0.0
endloop
endfacet
facet normal 0.5 -0.866025403784439 0.0
outer loop
vertex 9.921875 8.41222299276169 0.0
vertex 10.4961871488496 8.65011087385084 3.175
vertex 9.921875 8.41222299276169 3.175
endloop
endfacet
facet normal 1.24755538539057e-016 -1.0 0.0
outer loop
vertex 11.1125 8.73125 3.175
vertex 10.4961871488496 8.65011087385084 0.0
vertex 11.1125 8.73125 0.0
endloop
endfacet
facet normal 0.258819045102521 -0.965925826289068 0.0
outer loop
vertex 10.4961871488496 8.65011087385084 0.0
vertex 11.1125 8.73125 3.175
vertex 10.4961871488496 8.65011087385084 3.175
endloop
endfacet
facet normal -0.258819045102521 -0.965925826289068 0.0
outer loop
vertex 11.7288128511504 8.65011087385084 3.175
vertex 11.1125 8.73125 0.0
vertex 11.7288128511504 8.65011087385084 0.0
endloop
endfacet
facet normal 1.24755538539057e-016 -1.0 0.0
outer loop
vertex 11.1125 8.73125 0.0
vertex 11.7288128511504 8.65011087385084 3.175
vertex 11.1125 8.73125 3.175
endloop
endfacet
facet normal -0.500000000000001 -0.866025403784438 0.0
outer loop
vertex 12.303125 8.41222299276169 3.175
vertex 11.7288128511504 8.65011087385084 0.0
vertex 12.303125 8.41222299276169 0.0
endloop
endfacet
facet normal -0.258819045102521 -0.965925826289068 0.0
outer loop
vertex 11.7288128511504 8.65011087385084 0.0
vertex 12.303125 8.41222299276169 3.175
vertex 11.7288128511504 8.65011087385084 3.175
endloop
endfacet
facet normal -0.707106781186548 -0.707106781186548 0.0
outer loop
vertex 12.7962980227005 8.03379802270046 3.175
vertex 12.303125 8.41222299276169 0.0
vertex 12.7962980227005 8.03379802270046 0.0
endloop
endfacet
facet normal -0.500000000000001 -0.866025403784438 0.0
outer loop
vertex 12.303125 8.41222299276169 0.0
vertex 12.7962980227005 8.03379802270046 3.175
vertex 12.303125 8.41222299276169 3.175
endloop
endfacet
facet normal -0.707106781186548 -0.707106781186548 0.0
outer loop
vertex 12.7962980227005 8.03379802270046 3.175
vertex 13.1747229927617 7.540625 0.0
vertex 13.1747229927617 7.540625 3.175
endloop
endfacet
facet normal -0.866025403784438 -0.5 0.0
outer loop
vertex 13.1747229927617 7.540625 0.0
vertex 12.7962980227005 8.03379802270046 3.175
vertex 12.7962980227005 8.03379802270046 0.0
endloop
endfacet
facet normal -0.866025403784438 -0.5 0.0
outer loop
vertex 13.1747229927617 7.540625 3.175
vertex 13.4126108738508 6.96631285115038 0.0
vertex 13.4126108738508 6.96631285115038 3.175
endloop
endfacet
facet normal -0.965925826289068 -0.258819045102521 0.0
outer loop
vertex 13.4126108738508 6.96631285115038 0.0
vertex 13.1747229927617 7.540625 3.175
vertex 13.1747229927617 7.540625 0.0
endloop
endfacet
endsolid Light Switch Servo Mount
