<?xml version="1.0" encoding="UTF-8" standalone="no"?>
<!-- Created with Inkscape (http://www.inkscape.org/) -->

<svg
   xmlns:dc="http://purl.org/dc/elements/1.1/"
   xmlns:cc="http://creativecommons.org/ns#"
   xmlns:rdf="http://www.w3.org/1999/02/22-rdf-syntax-ns#"
   xmlns:svg="http://www.w3.org/2000/svg"
   xmlns="http://www.w3.org/2000/svg"
   xmlns:sodipodi="http://sodipodi.sourceforge.net/DTD/sodipodi-0.dtd"
   xmlns:inkscape="http://www.inkscape.org/namespaces/inkscape"
   width="744.09448819"
   height="1052.3622047"
   id="svg2995"
   version="1.1"
   inkscape:version="0.48.5 r10040"
   sodipodi:docname="SAMILogo2.svg"
   inkscape:export-filename="C:\Users\David\Desktop\SAMILogo.png"
   inkscape:export-xdpi="90"
   inkscape:export-ydpi="90">
  <defs
     id="defs2997" />
  <sodipodi:namedview
     id="base"
     pagecolor="#ffffff"
     bordercolor="#ffffff"
     borderopacity="0.0"
     inkscape:pageopacity="0.0"
     inkscape:pageshadow="0"
     inkscape:zoom="0.35"
     inkscape:cx="248.18896"
     inkscape:cy="556.78286"
     inkscape:document-units="px"
     inkscape:current-layer="layer3"
     showgrid="true"
     inkscape:window-width="1366"
     inkscape:window-height="705"
     inkscape:window-x="-8"
     inkscape:window-y="-8"
     inkscape:window-maximized="1"
     inkscape:snap-grids="true"
     inkscape:snap-to-guides="false">
    <inkscape:grid
       type="xygrid"
       id="grid3003" />
  </sodipodi:namedview>
  <metadata
     id="metadata3000">
    <rdf:RDF>
      <cc:Work
         rdf:about="">
        <dc:format>image/svg+xml</dc:format>
        <dc:type
           rdf:resource="http://purl.org/dc/dcmitype/StillImage" />
        <dc:title />
      </cc:Work>
    </rdf:RDF>
  </metadata>
  <g
     inkscape:label="Background"
     inkscape:groupmode="layer"
     id="layer1"
     style="display:inline"
     sodipodi:insensitive="true">
    <rect
       style="fill:#800000;fill-opacity:1"
       id="rect2997"
       width="1240"
       height="1160"
       x="-240"
       y="52.362183"
       ry="161.11111" />
  </g>
  <g
     style="display:inline"
     id="g2989"
     inkscape:groupmode="layer"
     inkscape:label="Bottom of S"
     sodipodi:insensitive="true">
    <path
       sodipodi:nodetypes="cscssssssccssssscc"
       inkscape:connector-curvature="0"
       id="path2993"
       d="m -100,612.36218 c 0,0 -74.27424,78.0896 40,80 84.286672,1.40908 262,0.0128 262,0.0128 l 478,0 c 66.48,0 120,44.6 120,100 l 0,120 c 0,55.4 -53.52,100.00002 -120,100.00002 l -600,0 c -66.48,0 -120,-44.60002 -120,-100.00002 l 0,-20 -80,0 0,100 c 0,55.40002 53.52,100.00002 120,100.00002 l 760,0 c 66.48,0 120,-44.6 120,-100.00002 l 0,-280 c 0,-55.4 -53.52,-99.99888 -120,-100 176.66481,3.70393 -805.27284,-0.61107 -860,-0.0128 z"
       style="fill:#ffffff" />
  </g>
  <g
     inkscape:groupmode="layer"
     id="layer2"
     inkscape:label="Top of S"
     style="display:inline">
    <path
       style="fill:#ffffff"
       d="M 345.15399,132.36218 -111.42857,624.08676 2.0887449,623.76454 341.63538,225.6149 l 238.09313,306.74728 100.27149,0 z"
       id="rect3075"
       inkscape:connector-curvature="0"
       sodipodi:nodetypes="ccccccc" />
  </g>
  <g
     inkscape:groupmode="layer"
     id="layer3"
     inkscape:label="A and M">
    <path
       style="fill:#ffffff;display:inline"
       d="m 678.36985,279.92631 190.0118,252.43587 -47.09541,0 L 680,332.36218 577.848,476.2819 548.38165,449.58441 z"
       id="rect3075-1"
       inkscape:connector-curvature="0"
       sodipodi:nodetypes="ccccccc" />
  </g>
  <g
     inkscape:groupmode="layer"
     id="layer4"
     inkscape:label="I"
     sodipodi:insensitive="true"
     style="display:none">
    <rect
       style="fill:#ffffff;fill-opacity:1"
       id="rect3026"
       width="80"
       height="360"
       x="600"
       y="212.36218"
       ry="0"
       rx="0" />
    <path
       sodipodi:type="arc"
       style="fill:#ffffff;fill-opacity:1"
       id="path3036"
       sodipodi:cx="647.14288"
       sodipodi:cy="160.93361"
       sodipodi:rx="30"
       sodipodi:ry="25.714285"
       d="m 677.14288,160.93361 a 30,25.714285 0 1 1 -60,0 30,25.714285 0 1 1 60,0 z"
       transform="matrix(1.2857143,0,0,1.2222222,-190.61225,-41.477312)" />
  </g>
</svg>
