<?xml version="1.0" encoding="UTF-8" standalone="no"?>
<!-- Created with Inkscape (http://www.inkscape.org/) -->

<svg
   xmlns:dc="http://purl.org/dc/elements/1.1/"
   xmlns:cc="http://creativecommons.org/ns#"
   xmlns:rdf="http://www.w3.org/1999/02/22-rdf-syntax-ns#"
   xmlns:svg="http://www.w3.org/2000/svg"
   xmlns="http://www.w3.org/2000/svg"
   xmlns:sodipodi="http://sodipodi.sourceforge.net/DTD/sodipodi-0.dtd"
   xmlns:inkscape="http://www.inkscape.org/namespaces/inkscape"
   width="744.09448819"
   height="1052.3622047"
   id="svg2995"
   version="1.1"
   inkscape:version="0.48.5 r10040"
   sodipodi:docname="SAMILogo.svg"
   inkscape:export-filename="C:\Users\David\Desktop\SAMILogo.png"
   inkscape:export-xdpi="90"
   inkscape:export-ydpi="90">
  <defs
     id="defs2997" />
  <sodipodi:namedview
     id="base"
     pagecolor="#ffffff"
     bordercolor="#ffffff"
     borderopacity="0.0"
     inkscape:pageopacity="0.0"
     inkscape:pageshadow="0"
     inkscape:zoom="0.25"
     inkscape:cx="-94.07611"
     inkscape:cy="556.78286"
     inkscape:document-units="px"
     inkscape:current-layer="layer3"
     showgrid="true"
     inkscape:window-width="1366"
     inkscape:window-height="705"
     inkscape:window-x="-8"
     inkscape:window-y="-8"
     inkscape:window-maximized="1"
     inkscape:snap-grids="true"
     inkscape:snap-to-guides="false">
    <inkscape:grid
       type="xygrid"
       id="grid3003" />
  </sodipodi:namedview>
  <metadata
     id="metadata3000">
    <rdf:RDF>
      <cc:Work
         rdf:about="">
        <dc:format>image/svg+xml</dc:format>
        <dc:type
           rdf:resource="http://purl.org/dc/dcmitype/StillImage" />
        <dc:title />
      </cc:Work>
    </rdf:RDF>
  </metadata>
  <g
     inkscape:groupmode="layer"
     id="layer3"
     inkscape:label="Background">
    <rect
       style="fill:#800000"
       id="rect2988"
       width="1240"
       height="1280"
       x="-240"
       y="-67.637817"
       ry="200"
       inkscape:export-filename="C:\Users\David\Desktop\SAMILogo.png"
       inkscape:export-xdpi="90"
       inkscape:export-ydpi="90" />
  </g>
  <g
     inkscape:label="Bottom of S"
     inkscape:groupmode="layer"
     id="layer1"
     style="display:inline"
     sodipodi:insensitive="true">
    <path
       style="fill:#ffffff"
       d="m -100,612.36218 c 0,0 -74.27424,78.0896 40,80 84.286672,1.40908 262,0.0128 262,0.0128 l 478,0 c 66.48,0 120,44.6 120,100 l 0,120 c 0,55.4 -53.52,100.00002 -120,100.00002 l -600,0 c -66.48,0 -120,-44.60002 -120,-100.00002 l 0,-20 -80,0 0,100 c 0,55.40002 53.52,100.00002 120,100.00002 l 760,0 c 66.48,0 120,-44.6 120,-100.00002 l 0,-280 c 0,-55.4 -53.52,-99.99888 -120,-100 176.66481,3.70393 -805.27284,-0.61107 -860,-0.0128 z"
       id="rect3022"
       inkscape:connector-curvature="0"
       sodipodi:nodetypes="cscssssssccssssscc" />
  </g>
  <g
     inkscape:groupmode="layer"
     id="layer2"
     inkscape:label="Top of S"
     sodipodi:insensitive="true">
    <path
       style="fill:#ffffff"
       d="m 400,12.375 -500,599.98718 110,3.51282 386,-486 250.65625,322.5 105.34375,0 z"
       id="rect3075"
       inkscape:connector-curvature="0"
       sodipodi:nodetypes="ccccccc" />
  </g>
</svg>
